<svg width="12" height="18" viewBox="0 0 12 18" fill="none" xmlns="http://www.w3.org/2000/svg">
<path d="M7.48438 7.98438C7.06771 8.375 6.57292 8.57031 6 8.57031C5.42708 8.57031 4.94531 8.375 4.55469 7.98438C4.13802 7.56771 3.92969 7.07292 3.92969 6.5C3.92969 5.92708 4.13802 5.44531 4.55469 5.05469C4.94531 4.63802 5.42708 4.42969 6 4.42969C6.57292 4.42969 7.06771 4.63802 7.48438 5.05469C7.875 5.44531 8.07031 5.92708 8.07031 6.5C8.07031 7.07292 7.875 7.56771 7.48438 7.98438ZM10.1406 2.39844C8.99479 1.2526 7.61458 0.679688 6 0.679688C4.38542 0.679688 3.01823 1.2526 1.89844 2.39844C0.752604 3.51823 0.179688 4.88542 0.179688 6.5C0.179688 7.30729 0.388021 8.23177 0.804688 9.27344C1.19531 10.3151 1.67708 11.2917 2.25 12.2031C2.82292 13.1146 3.39583 13.974 3.96875 14.7812C4.51562 15.5625 4.98438 16.1875 5.375 16.6562L6 17.3203C6.15625 17.138 6.36458 16.9036 6.625 16.6172C6.88542 16.3047 7.35417 15.7057 8.03125 14.8203C8.70833 13.9089 9.30729 13.0365 9.82812 12.2031C10.3229 11.3438 10.7786 10.3802 11.1953 9.3125C11.612 8.24479 11.8203 7.30729 11.8203 6.5C11.8203 4.88542 11.2604 3.51823 10.1406 2.39844Z" fill="#12B5CB"/>
</svg>
